name E:\Dropbox\SEL\BOX\Experiment\240124_SUB1_PJH\c3d\XYZ\UpDown_TrcMot\15_10_trial2_U1_ExtLoadAPP3.mot
datacolumns 37
datarows 13
range 1.51 1.522
endheader

time	    ground_force1_vx	    ground_force1_vy	    ground_force1_vz	    ground_force1_px	    ground_force1_py	    ground_force1_pz	    ground_torque1_x	    ground_torque1_y	    ground_torque1_z	    ground_force2_vx	    ground_force2_vy	    ground_force2_vz	    ground_force2_px	    ground_force2_py	    ground_force2_pz	    ground_torque2_x	    ground_torque2_y	    ground_torque2_z	      hand_force3_vx	      hand_force3_vy	      hand_force3_vz	      hand_force3_px	      hand_force3_py	      hand_force3_pz	      hand_torque3_x	      hand_torque3_y	      hand_torque3_z	      hand_force4_vx	      hand_force4_vy	      hand_force4_vz	      hand_force4_px	      hand_force4_py	      hand_force4_pz	      hand_torque4_x	      hand_torque4_y	      hand_torque4_z	
1.51	         26.85774503	        408.40677675	         -6.11689785	          0.23129970	          0.00000000	          0.29430874	          0.00000000	         -4.26528606	          0.00000000	        -27.54467342	        392.65185621	         -1.96128894	          0.57305581	          0.00000000	          0.25895133	          0.00000000	          3.32741569	          0.00000000	          0.00000000	          0.00000000	          0.00000000	          0.14604241	          0.40517015	         -0.06496526	          0.00000000	          0.00000000	          0.00000000	          0.00000000	          0.00000000	          0.00000000	          0.65074986	          0.41704374	         -0.06926336	          0.00000000	          0.00000000	          0.00000000	
1.511	         26.86976977	        408.41885929	         -6.16575407	          0.23129674	          0.00000000	          0.29418024	          0.00000000	         -4.26694272	          0.00000000	        -27.66561695	        393.15331120	         -1.95674269	          0.57309346	          0.00000000	          0.25882389	          0.00000000	          3.33056984	          0.00000000	          0.00000000	          0.00000000	          0.00000000	          0.14602291	          0.40515400	         -0.06498105	          0.00000000	          0.00000000	          0.00000000	          0.00000000	          0.00000000	          0.00000000	          0.65075019	          0.41704554	         -0.06926878	          0.00000000	          0.00000000	          0.00000000	
1.512	         26.88410949	        408.44031755	         -6.20807053	          0.23129261	          0.00000000	          0.29404372	          0.00000000	         -4.26874776	          0.00000000	        -27.78903411	        393.67030755	         -1.95252865	          0.57313117	          0.00000000	          0.25869640	          0.00000000	          3.33372928	          0.00000000	          0.00000000	          0.00000000	          0.00000000	          0.14600261	          0.40514089	         -0.06499505	          0.00000000	          0.00000000	          0.00000000	          0.00000000	          0.00000000	          0.00000000	          0.65075042	          0.41704917	         -0.06927366	          0.00000000	          0.00000000	          0.00000000	
1.513	         26.90079497	        408.47169332	         -6.24368014	          0.23128729	          0.00000000	          0.29389910	          0.00000000	         -4.27070010	          0.00000000	        -27.91490898	        394.20289535	         -1.94857748	          0.57316896	          0.00000000	          0.25856874	          0.00000000	          3.33688733	          0.00000000	          0.00000000	          0.00000000	          0.00000000	          0.14598157	          0.40513078	         -0.06500723	          0.00000000	          0.00000000	          0.00000000	          0.00000000	          0.00000000	          0.00000000	          0.65075059	          0.41705461	         -0.06927797	          0.00000000	          0.00000000	          0.00000000	
1.514	         26.91985369	        408.51351164	         -6.27242583	          0.23128078	          0.00000000	          0.29374630	          0.00000000	         -4.27279829	          0.00000000	        -28.04322169	        394.75109942	         -1.94481348	          0.57320680	          0.00000000	          0.25844079	          0.00000000	          3.34003688	          0.00000000	          0.00000000	          0.00000000	          0.00000000	          0.14595979	          0.40512364	         -0.06501755	          0.00000000	          0.00000000	          0.00000000	          0.00000000	          0.00000000	          0.00000000	          0.65075071	          0.41706182	         -0.06928170	          0.00000000	          0.00000000	          0.00000000	
1.515	         26.94130982	        408.56627917	         -6.29416066	          0.23127307	          0.00000000	          0.29358524	          0.00000000	         -4.27504044	          0.00000000	        -28.17394828	        395.31491878	         -1.94115477	          0.57324469	          0.00000000	          0.25831241	          0.00000000	          3.34317033	          0.00000000	          0.00000000	          0.00000000	          0.00000000	          0.14593733	          0.40511942	         -0.06502600	          0.00000000	          0.00000000	          0.00000000	          0.00000000	          0.00000000	          0.00000000	          0.65075081	          0.41707079	         -0.06928481	          0.00000000	          0.00000000	          0.00000000	
1.516	         26.96518417	        408.63048263	         -6.30874802	          0.23126415	          0.00000000	          0.29341586	          0.00000000	         -4.27742429	          0.00000000	        -28.30706055	        395.89432614	         -1.93751344	          0.57328263	          0.00000000	          0.25818346	          0.00000000	          3.34627967	          0.00000000	          0.00000000	          0.00000000	          0.00000000	          0.14591420	          0.40511807	         -0.06503256	          0.00000000	          0.00000000	          0.00000000	          0.00000000	          0.00000000	          0.00000000	          0.65075092	          0.41708150	         -0.06928726	          0.00000000	          0.00000000	          0.00000000	
1.517	         26.99149430	        408.70658723	         -6.31606170	          0.23125403	          0.00000000	          0.29323808	          0.00000000	         -4.27994710	          0.00000000	        -28.44252588	        396.48926758	         -1.93379578	          0.57332061	          0.00000000	          0.25805380	          0.00000000	          3.34935643	          0.00000000	          0.00000000	          0.00000000	          0.00000000	          0.14589044	          0.40511954	         -0.06503719	          0.00000000	          0.00000000	          0.00000000	          0.00000000	          0.00000000	          0.00000000	          0.65075108	          0.41709390	         -0.06928904	          0.00000000	          0.00000000	          0.00000000	
1.518	         27.02025446	        408.79503524	         -6.31598602	          0.23124269	          0.00000000	          0.29305184	          0.00000000	         -4.28260575	          0.00000000	        -28.58030715	        397.09966216	         -1.92990247	          0.57335863	          0.00000000	          0.25792326	          0.00000000	          3.35239174	          0.00000000	          0.00000000	          0.00000000	          0.00000000	          0.14586608	          0.40512378	         -0.06503987	          0.00000000	          0.00000000	          0.00000000	          0.00000000	          0.00000000	          0.00000000	          0.65075130	          0.41710799	         -0.06929010	          0.00000000	          0.00000000	          0.00000000	
1.519	         27.05147571	        408.89624458	         -6.30841591	          0.23123013	          0.00000000	          0.29285709	          0.00000000	         -4.28539667	          0.00000000	        -28.72036256	        397.72540168	         -1.92572886	          0.57339667	          0.00000000	          0.25779169	          0.00000000	          3.35537633	          0.00000000	          0.00000000	          0.00000000	          0.00000000	          0.14584114	          0.40513073	         -0.06504059	          0.00000000	          0.00000000	          0.00000000	          0.00000000	          0.00000000	          0.00000000	          0.65075162	          0.41712373	         -0.06929042	          0.00000000	          0.00000000	          0.00000000	
1.52	         27.08516594	        409.01060752	         -6.29325694	          0.23121633	          0.00000000	          0.29265377	          0.00000000	         -4.28831589	          0.00000000	        -28.86264557	        398.36635055	         -1.92116523	          0.57343474	          0.00000000	          0.25765892	          0.00000000	          3.35830053	          0.00000000	          0.00000000	          0.00000000	          0.00000000	          0.14581565	          0.40514033	         -0.06503931	          0.00000000	          0.00000000	          0.00000000	          0.00000000	          0.00000000	          0.00000000	          0.65075207	          0.41714110	         -0.06928997	          0.00000000	          0.00000000	          0.00000000	
1.521	         27.12132993	        409.13848938	         -6.27042535	          0.23120130	          0.00000000	          0.29244181	          0.00000000	         -4.29135897	          0.00000000	        -29.00710473	        399.02234565	         -1.91609713	          0.57347283	          0.00000000	          0.25752478	          0.00000000	          3.36115432	          0.00000000	          0.00000000	          0.00000000	          0.00000000	          0.14578965	          0.40515253	         -0.06503602	          0.00000000	          0.00000000	          0.00000000	          0.00000000	          0.00000000	          0.00000000	          0.65075268	          0.41716008	         -0.06928871	          0.00000000	          0.00000000	          0.00000000	
1.522	         27.15996943	        409.28022743	         -6.23984810	          0.23118503	          0.00000000	          0.29222117	          0.00000000	         -4.29452107	          0.00000000	        -29.15368365	        399.69319633	         -1.91040565	          0.57351092	          0.00000000	          0.25738908	          0.00000000	          3.36392734	          0.00000000	          0.00000000	          0.00000000	          0.00000000	          0.14576314	          0.40516726	         -0.06503071	          0.00000000	          0.00000000	          0.00000000	          0.00000000	          0.00000000	          0.00000000	          0.65075346	          0.41718065	         -0.06928660	          0.00000000	          0.00000000	          0.00000000	
